<?xml version="1.0" encoding="UTF-8"?>
<svg width="29px" height="31px" viewBox="0 0 29 31" version="1.1" xmlns="http://www.w3.org/2000/svg" xmlns:xlink="http://www.w3.org/1999/xlink">
    <title>icons/download_dark</title>
    <g id="icons/download_dark" stroke="none" stroke-width="1" fill="none" fill-rule="evenodd">
        <path d="M12.9404297,2 L12.9404297,11.6230469 C12.9404297,13.2099609 13.7021484,13.9716797 15.2890625,13.9716797 L24.8105469,13.9716797 L24.8105469,25.3339844 C24.8105469,28.0761719 23.4013672,29.5107422 20.671875,29.5107422 L7.13867188,29.5107422 C4.421875,29.5107422 3,28.0761719 3,25.3339844 L3,6.18945312 C3,3.43457031 4.421875,2 7.13867188,2 L12.9404297,2 Z M19.3583984,21.5703125 C18.9248047,21.5703125 18.5512695,21.659668 18.237793,21.8383789 C17.9243164,22.0170898 17.6831055,22.2724609 17.5141602,22.6044922 C17.3452148,22.9365234 17.2607422,23.3330078 17.2607422,23.7939453 C17.2607422,24.2666016 17.3457031,24.6665039 17.515625,24.9995117 C17.6855469,25.3325195 17.9296875,25.5878906 18.2480469,25.765625 C18.5664062,25.9433594 18.9492188,26.0322266 19.3964844,26.0322266 C19.8066406,26.0322266 20.1577148,25.9560547 20.449707,25.8037109 C20.7416992,25.6513672 20.965332,25.4321289 21.1206055,25.1459961 C21.2758789,24.8598633 21.3535156,24.5166016 21.3535156,24.1162109 L21.3535156,23.5595703 L19.5136719,23.5595703 L19.5136719,24.3857422 L20.1582031,24.3857422 L20.1523438,24.4443359 C20.140625,24.5595703 20.1030273,24.6606445 20.0395508,24.7475586 C19.9760742,24.8344727 19.8916016,24.9013672 19.7861328,24.9482422 C19.6806641,24.9951172 19.5605469,25.0185547 19.4257812,25.0185547 C19.2441406,25.0185547 19.0859375,24.96875 18.9511719,24.8691406 C18.8164062,24.7695312 18.7119141,24.6274414 18.6376953,24.4428711 C18.5634766,24.2583008 18.5263672,24.0380859 18.5263672,23.7822266 C18.5263672,23.5263672 18.559082,23.3125 18.6245117,23.1347656 C18.6899414,22.9570312 18.784668,22.8208008 18.9086914,22.7260742 C19.0327148,22.6313477 19.1826172,22.5839844 19.3583984,22.5839844 C19.5380859,22.5839844 19.6953125,22.6293945 19.8300781,22.7202148 C19.9648438,22.8110352 20.0478516,22.9306641 20.0791016,23.0791016 L20.0849609,23.1054688 L21.3066406,23.1054688 L21.3037109,23.0761719 C21.2744141,22.78125 21.1723633,22.5209961 20.9975586,22.2954102 C20.8227539,22.0698242 20.5942383,21.8925781 20.3120117,21.7636719 C20.0297852,21.6347656 19.7119141,21.5703125 19.3583984,21.5703125 Z M8.62402344,21.6875 L6.74902344,21.6875 L6.74902344,25.9150391 L8.62402344,25.9150391 C9.04980469,25.9150391 9.40917969,25.8320312 9.70214844,25.6660156 C9.99511719,25.5 10.2172852,25.2558594 10.3686523,24.9335938 C10.5200195,24.6113281 10.5957031,24.2167969 10.5957031,23.75 C10.5957031,23.3046875 10.519043,22.9316406 10.3657227,22.625 C10.2124023,22.3183594 9.98925781,22.0854492 9.69628906,21.9262695 C9.40332031,21.7670898 9.04589844,21.6875 8.62402344,21.6875 Z M13.0097656,21.6875 L11.5976562,21.6875 L11.5976562,25.9150391 L12.6816406,25.9150391 L12.6816406,23.3896484 L13.5957031,25.9150391 L14.2607422,25.9150391 L15.1748047,23.3896484 L15.1748047,25.9150391 L16.2587891,25.9150391 L16.2587891,21.6875 L14.8466797,21.6875 L13.9589844,24.3505859 L13.9033203,24.3505859 L13.0097656,21.6875 Z M8.38085938,22.671875 C8.58007812,22.671875 8.75048828,22.7138672 8.89208984,22.7978516 C9.03369141,22.8818359 9.14208984,23.0053711 9.21728516,23.168457 C9.29248047,23.331543 9.33007812,23.53125 9.33007812,23.7675781 C9.33007812,24.03125 9.29394531,24.2460938 9.22167969,24.4179688 C9.14941406,24.5898438 9.04296875,24.7182617 8.90234375,24.8032227 C8.76171875,24.8881836 8.58789062,24.9306641 8.38085938,24.9306641 L7.99121094,24.9306641 L7.99121094,22.671875 L8.38085938,22.671875 Z M14.7939453,2.12695312 C15.3779297,2.203125 15.9492188,2.63476562 16.5839844,3.28222656 L23.5283203,10.3154297 C24.1884766,10.9882812 24.6074219,11.5341797 24.6835938,12.1181641 L15.5302734,12.1181641 C15.0478516,12.1181641 14.8066406,11.8769531 14.7939453,11.3818359 L14.7939453,2.12695312 Z" id="Combined-Shape" fill="#FF720D" fill-rule="nonzero"></path>
    </g>
</svg>