<?xml version="1.0" encoding="UTF-8"?>
<svg width="29px" height="31px" viewBox="0 0 29 31" version="1.1" xmlns="http://www.w3.org/2000/svg" xmlns:xlink="http://www.w3.org/1999/xlink">
    <title>icons/download_light</title>
    <g id="icons/download_light" stroke="none" stroke-width="1" fill="none" fill-rule="evenodd">
        <path d="M13.1777344,2.08496094 L13.1777344,11.7080078 C13.1777344,13.2949219 13.9394531,14.0566406 15.5263672,14.0566406 L25.0478516,14.0566406 L25.0478516,25.4189453 C25.0478516,28.1611328 23.6386719,29.5957031 20.9091797,29.5957031 L7.37597656,29.5957031 C4.65917969,29.5957031 3.23730469,28.1611328 3.23730469,25.4189453 L3.23730469,6.27441406 C3.23730469,3.51953125 4.65917969,2.08496094 7.37597656,2.08496094 L13.1777344,2.08496094 Z M19.5957031,21.6552734 C19.1621094,21.6552734 18.7885742,21.7446289 18.4750977,21.9233398 C18.1616211,22.1020508 17.9204102,22.3574219 17.7514648,22.6894531 C17.5825195,23.0214844 17.4980469,23.4179688 17.4980469,23.8789062 C17.4980469,24.3515625 17.5830078,24.7514648 17.7529297,25.0844727 C17.9228516,25.4174805 18.1669922,25.6728516 18.4853516,25.8505859 C18.8037109,26.0283203 19.1865234,26.1171875 19.6337891,26.1171875 C20.0439453,26.1171875 20.3950195,26.0410156 20.6870117,25.8886719 C20.9790039,25.7363281 21.2026367,25.5170898 21.3579102,25.230957 C21.5131836,24.9448242 21.5908203,24.6015625 21.5908203,24.2011719 L21.5908203,23.6445312 L19.7509766,23.6445312 L19.7509766,24.4707031 L20.3955078,24.4707031 L20.3896484,24.5292969 C20.3779297,24.6445312 20.340332,24.7456055 20.2768555,24.8325195 C20.2133789,24.9194336 20.1289062,24.9863281 20.0234375,25.0332031 C19.9179688,25.0800781 19.7978516,25.1035156 19.6630859,25.1035156 C19.4814453,25.1035156 19.3232422,25.0537109 19.1884766,24.9541016 C19.0537109,24.8544922 18.9492188,24.7124023 18.875,24.527832 C18.8007812,24.3432617 18.7636719,24.1230469 18.7636719,23.8671875 C18.7636719,23.6113281 18.7963867,23.3974609 18.8618164,23.2197266 C18.9272461,23.0419922 19.0219727,22.9057617 19.1459961,22.8110352 C19.2700195,22.7163086 19.4199219,22.6689453 19.5957031,22.6689453 C19.7753906,22.6689453 19.9326172,22.7143555 20.0673828,22.8051758 C20.2021484,22.8959961 20.2851562,23.015625 20.3164062,23.1640625 L20.3222656,23.1904297 L21.5439453,23.1904297 L21.5410156,23.1611328 C21.5117188,22.8662109 21.409668,22.605957 21.2348633,22.3803711 C21.0600586,22.1547852 20.831543,21.9775391 20.5493164,21.8486328 C20.2670898,21.7197266 19.9492188,21.6552734 19.5957031,21.6552734 Z M8.86132812,21.7724609 L6.98632812,21.7724609 L6.98632812,26 L8.86132812,26 C9.28710938,26 9.64648438,25.9169922 9.93945312,25.7509766 C10.2324219,25.5849609 10.4545898,25.3408203 10.605957,25.0185547 C10.7573242,24.6962891 10.8330078,24.3017578 10.8330078,23.8349609 C10.8330078,23.3896484 10.7563477,23.0166016 10.6030273,22.7099609 C10.449707,22.4033203 10.2265625,22.1704102 9.93359375,22.0112305 C9.640625,21.8520508 9.28320312,21.7724609 8.86132812,21.7724609 Z M13.2470703,21.7724609 L11.8349609,21.7724609 L11.8349609,26 L12.9189453,26 L12.9189453,23.4746094 L13.8330078,26 L14.4980469,26 L15.4121094,23.4746094 L15.4121094,26 L16.4960938,26 L16.4960938,21.7724609 L15.0839844,21.7724609 L14.1962891,24.4355469 L14.140625,24.4355469 L13.2470703,21.7724609 Z M8.61816406,22.7568359 C8.81738281,22.7568359 8.98779297,22.7988281 9.12939453,22.8828125 C9.27099609,22.9667969 9.37939453,23.090332 9.45458984,23.253418 C9.52978516,23.4165039 9.56738281,23.6162109 9.56738281,23.8525391 C9.56738281,24.1162109 9.53125,24.3310547 9.45898438,24.5029297 C9.38671875,24.6748047 9.28027344,24.8032227 9.13964844,24.8881836 C8.99902344,24.9731445 8.82519531,25.015625 8.61816406,25.015625 L8.22851562,25.015625 L8.22851562,22.7568359 L8.61816406,22.7568359 Z M15.03125,2.21191406 C15.6152344,2.28808594 16.1865234,2.71972656 16.8212891,3.3671875 L23.765625,10.4003906 C24.4257812,11.0732422 24.8447266,11.6191406 24.9208984,12.203125 L15.7675781,12.203125 C15.2851562,12.203125 15.0439453,11.9619141 15.03125,11.4667969 L15.03125,2.21191406 Z" id="Combined-Shape" fill="#0B84FE" fill-rule="nonzero"></path>
    </g>
</svg>