<?xml version="1.0" encoding="UTF-8"?>
<svg width="29px" height="31px" viewBox="0 0 29 31" version="1.1" xmlns="http://www.w3.org/2000/svg" xmlns:xlink="http://www.w3.org/1999/xlink">
    <title>icons/download</title>
    <g id="icons/download" stroke="none" stroke-width="1" fill="none" fill-rule="evenodd">
        <g id="􀈾" transform="translate(3.2373, 2.085)" fill="#0B84FE" fill-rule="nonzero">
            <path d="M4.13867188,27.5107422 L17.671875,27.5107422 C20.4013672,27.5107422 21.8105469,26.0761719 21.8105469,23.3339844 L21.8105469,11.9716797 L12.2890625,11.9716797 C10.7021484,11.9716797 9.94042969,11.2099609 9.94042969,9.62304688 L9.94042969,0 L4.13867188,0 C1.421875,0 0,1.43457031 0,4.18945312 L0,23.3339844 C0,26.0761719 1.421875,27.5107422 4.13867188,27.5107422 Z M12.5302734,10.1181641 L21.6835938,10.1181641 C21.6074219,9.53417969 21.1884766,8.98828125 20.5283203,8.31542969 L13.5839844,1.28222656 C12.9492188,0.634765625 12.3779297,0.203125 11.7939453,0.126953125 L11.7939453,9.38183594 C11.8066406,9.87695312 12.0478516,10.1181641 12.5302734,10.1181641 Z M10.9052734,14.3710938 C11.4892578,14.3710938 11.9716797,14.8154297 11.9716797,15.3994141 L11.9716797,19.5888672 L11.8828125,21.4804688 L12.8349609,20.4902344 L13.8759766,19.4365234 C14.0664062,19.2460938 14.3203125,19.1064453 14.5869141,19.1064453 C15.1455078,19.1064453 15.5644531,19.5 15.5644531,20.0458984 C15.5644531,20.3378906 15.4375,20.5791016 15.2216797,20.7695312 L11.7304688,23.9941406 C11.4384766,24.2480469 11.2099609,24.3623047 10.9052734,24.3623047 C10.6132812,24.3623047 10.3720703,24.2480469 10.0927734,23.9941406 L6.58886719,20.7695312 C6.37304688,20.5791016 6.24609375,20.3378906 6.24609375,20.0458984 C6.24609375,19.5 6.66503906,19.1064453 7.22363281,19.1064453 C7.47753906,19.1064453 7.74414062,19.2460938 7.93457031,19.4365234 L8.97558594,20.4902344 L9.94042969,21.4804688 L9.83886719,19.5888672 L9.83886719,15.3994141 C9.83886719,14.8154297 10.3212891,14.3710938 10.9052734,14.3710938 Z" id="Shape"></path>
        </g>
    </g>
</svg>