<?xml version="1.0" encoding="UTF-8"?>
<svg width="16px" height="16px" viewBox="0 0 16 16" version="1.1" xmlns="http://www.w3.org/2000/svg" xmlns:xlink="http://www.w3.org/1999/xlink">
    <title>icons/github</title>
    <g id="icons/github" stroke="none" stroke-width="1" fill="none" fill-rule="evenodd">
        <path d="M8,0 C12.4200002,0 16,3.57999975 16,8 C15.9991213,11.4370034 13.8064463,14.4906553 10.5500004,15.5899989 C10.1500004,15.6699989 10,15.4199989 10,15.2099989 C10,14.939999 10.0100004,14.079999 10.0100004,13.0099991 C10.0100004,12.2599991 9.76000043,11.7799992 9.47000045,11.5299992 C11.2500003,11.3299992 13.1200002,10.6499993 13.1200002,7.57999947 C13.1200002,6.69999953 12.8100002,5.98999958 12.3000003,5.42999962 C12.3800003,5.22999964 12.6600002,4.40999969 12.2200003,3.30999977 C12.2200003,3.30999977 11.5500003,3.08999979 10.0200004,4.12999971 C9.38000046,3.94999973 8.70000051,3.85999973 8.02000055,3.85999973 C7.3400006,3.85999973 6.66000065,3.94999973 6.02000069,4.12999971 C4.4900008,3.09999978 3.82000085,3.30999977 3.82000085,3.30999977 C3.38000088,4.40999969 3.66000086,5.22999964 3.74000085,5.42999962 C3.23000089,5.98999958 2.92000091,6.70999953 2.92000091,7.57999947 C2.92000091,10.6399993 4.78000078,11.3299992 6.56000066,11.5299992 C6.33000067,11.7299992 6.12000069,12.0799992 6.05000069,12.5999991 C5.59000072,12.8099991 4.4400008,13.1499991 3.72000085,11.9399992 C3.57000086,11.6999992 3.12000089,11.1099992 2.49000094,11.1199992 C1.82000099,11.1299992 2.22000096,11.5 2.5,11.6499992 C2.84000091,11.8399992 3.23000089,12.5499991 3.32000088,12.7799991 C3.48000087,13.2299991 4,14.089999 6.01000069,13.719999 C6.01000069,14.389999 6.02000069,15.019999 6.02000069,15.2099989 C6.02000069,15.4199989 5.8700007,15.6599989 5.47000073,15.5899989 C2.20218134,14.5022775 -0.00180692126,11.4440927 0,8 C0,3.57999975 3.58000086,0 8,0 L8,0 Z" id="Path" fill="#697281" fill-rule="nonzero"></path>
    </g>
</svg>