<?xml version="1.0" encoding="UTF-8"?>
<svg width="51px" height="51px" viewBox="0 0 51 51" version="1.1" xmlns="http://www.w3.org/2000/svg" xmlns:xlink="http://www.w3.org/1999/xlink">
    <title>icons/social_linkedin</title>
    <g id="icons/social_linkedin" stroke="none" stroke-width="1" fill="none" fill-rule="evenodd">
        <rect id="Rectangle" fill-opacity="0" fill="#FFFFFF" x="0" y="0" width="51" height="51" rx="6"></rect>
        <path d="M16.15,35.2142857 L16.15,22.2214286 L20.1571429,22.2214286 L20.1571429,35.2142857 L16.15,35.2142857 Z M18.0928571,20.5214286 C16.8785714,20.5214286 15.7857143,19.4285714 15.7857143,18.0928571 C15.7857143,16.8785714 16.8785714,15.7857143 18.0928571,15.7857143 C19.4285714,15.7857143 20.4,16.8785714 20.4,18.0928571 C20.4,19.4285714 19.4285714,20.5214286 18.0928571,20.5214286 Z M35.2142857,35.2142857 L31.2071429,35.2142857 L31.2071429,28.9 C31.2071429,27.4428571 31.2071429,25.5 29.1428571,25.5 C27.0785714,25.5 26.7142857,27.0785714 26.7142857,28.7785714 L26.7142857,35.2142857 L22.7071429,35.2142857 L22.7071429,22.2214286 L26.5928571,22.2214286 L26.5928571,24.0428571 C27.0785714,23.0714286 28.4142857,21.9785714 30.3571429,21.9785714 C34.4857143,21.9785714 35.2142857,24.65 35.2142857,28.1714286 L35.2142857,35.2142857 Z" id="Combined-Shape" fill="#000000" fill-rule="nonzero"></path>
    </g>
</svg>