<?xml version="1.0" encoding="UTF-8"?>
<svg width="51px" height="51px" viewBox="0 0 51 51" version="1.1" xmlns="http://www.w3.org/2000/svg" xmlns:xlink="http://www.w3.org/1999/xlink">
    <title>icons/social_twitter</title>
    <g id="icons/social_twitter" stroke="none" stroke-width="1" fill="none" fill-rule="evenodd">
        <rect id="Rectangle" fill-opacity="0" fill="#FFFFFF" x="0" y="0" width="51" height="51" rx="6"></rect>
        <path d="M36.0931677,20.3307692 C36.0931677,20.4923077 36.0931677,20.8153846 36.0931677,20.9769231 C36.0931677,27.9230769 30.7639752,36 21.0745342,36 C18.0062112,36 15.2608696,35.1923077 13,33.5769231 C13.484472,33.5769231 13.8074534,33.5769231 14.2919255,33.5769231 C16.7142857,33.5769231 19.136646,32.7692308 20.9130435,31.3153846 C18.6521739,31.3153846 16.7142857,29.7 15.9068323,27.6 C16.2298137,27.6 16.552795,27.7615385 16.8757764,27.7615385 C17.3602484,27.7615385 17.8447205,27.7615385 18.3291925,27.6 C15.9068323,27.1153846 14.1304348,25.0153846 14.1304348,22.4307692 C14.1304348,22.4307692 14.1304348,22.4307692 14.1304348,22.4307692 C14.7763975,22.7538462 15.5838509,23.0769231 16.552795,23.0769231 C15.0993789,22.1076923 14.1304348,20.4923077 14.1304348,18.7153846 C14.1304348,17.7461538 14.4534161,16.7769231 14.7763975,15.9692308 C17.3602484,19.2 21.2360248,21.3 25.757764,21.4615385 C25.5962733,21.1384615 25.5962733,20.6538462 25.5962733,20.3307692 C25.5962733,17.4230769 28.0186335,15 30.9254658,15 C32.378882,15 33.8322981,15.6461538 34.8012422,16.6153846 C35.931677,16.4538462 37.2236025,15.9692308 38.1925466,15.3230769 C37.8695652,16.6153846 36.9006211,17.5846154 35.931677,18.2307692 C37.0621118,18.0692308 38.0310559,17.7461538 39,17.4230769 C38.0310559,18.7153846 37.0621118,19.6846154 36.0931677,20.3307692 Z" id="Path" fill="#000000"></path>
    </g>
</svg>