<?xml version="1.0" encoding="UTF-8"?>
<svg width="51px" height="51px" viewBox="0 0 51 51" version="1.1" xmlns="http://www.w3.org/2000/svg" xmlns:xlink="http://www.w3.org/1999/xlink">
    <title>icons/social_mastodon</title>
    <g id="icons/social_mastodon" stroke="none" stroke-width="1" fill="none" fill-rule="evenodd">
        <rect id="Rectangle" fill-opacity="0" fill="#FFFFFF" x="0" y="0" width="51" height="51" rx="6"></rect>
        <path d="M25.5433606,13.3571429 C28.8719036,13.3837958 32.0757437,13.7367416 33.9415177,14.5760355 L33.9595087,14.584295 C33.9654219,14.5870741 33.9727504,14.5905674 33.9814314,14.5947944 L34.049244,14.6291161 C34.658173,14.9476559 37.6419249,16.7619326 37.6419249,21.729199 C37.6419249,21.729199 37.6420536,21.7405046 37.6422152,21.762339 L37.642555,22.11137 C37.6383679,23.19051 37.5847378,26.3325167 37.1258598,28.6441343 C36.7688645,30.4429352 33.9284722,32.4115458 30.6662785,32.793068 C28.9651853,32.9918662 27.2903231,33.1745902 25.5043646,33.0943565 C22.5835958,32.9632898 20.278907,32.4115458 20.278907,32.4115458 C20.278907,32.6900281 20.2964412,32.955184 20.3315095,33.2031666 C20.6907037,35.873718 22.9279041,36.1694055 25.1559586,36.2603193 L25.5374691,36.2743035 C27.9071044,36.3537129 30.0170941,35.7020889 30.0170941,35.7020889 L30.1144437,37.8002549 C30.1144437,37.8002549 28.4569754,38.671972 25.5043646,38.832302 C23.8762135,38.9199545 21.854596,38.7921851 19.4999699,38.1817771 C14.3931834,36.8579212 13.5149328,31.5263648 13.3805511,26.1166356 C13.3395913,24.5104505 13.3648405,22.9959021 13.3648405,21.729199 C13.3648405,16.7619326 16.3487056,14.9476559 16.9576576,14.6291161 L17.0254727,14.5947944 C17.0515168,14.5821134 17.065388,14.5760355 17.065388,14.5760355 C18.9313023,13.7367416 22.1330383,13.3837958 25.4615813,13.3571429 L25.5433606,13.3571429 Z M29.3056283,17.6794033 C27.9190277,17.6794033 26.8690827,18.2013345 26.1750108,19.2453342 L25.5000162,20.353356 L24.8251617,19.2453342 C24.1309496,18.2013345 23.0810046,17.6794033 21.6945442,17.6794033 C20.4961902,17.6794033 19.53083,18.0919749 18.7936943,18.8967847 C18.078862,19.7015946 17.7229888,20.7894206 17.7229888,22.1583393 L17.7229888,28.8563414 L20.4323659,28.8563414 L20.4323659,22.3552141 C20.4323659,20.9847842 21.0210926,20.2891965 22.1986862,20.2891965 C23.5007021,20.2891965 24.1533933,21.1143396 24.1533933,22.7459412 L24.1533933,26.3043879 L26.8467792,26.3043879 L26.8467792,22.7459412 C26.8467792,21.1143396 27.4993302,20.2891965 28.8013462,20.2891965 C29.9789397,20.2891965 30.5676664,20.9847842 30.5676664,22.3552141 L30.5676664,28.8563414 L33.2770435,28.8563414 L33.2770435,22.1583393 C33.2770435,20.7894206 32.9211703,19.7015946 32.2064783,18.8967847 C31.4692023,18.0919749 30.5038421,17.6794033 29.3056283,17.6794033 Z" id="Combined-Shape" fill="#000000" fill-rule="nonzero"></path>
    </g>
</svg>