<?xml version="1.0" encoding="UTF-8"?>
<svg width="56px" height="56px" viewBox="0 0 56 56" version="1.1" xmlns="http://www.w3.org/2000/svg" xmlns:xlink="http://www.w3.org/1999/xlink">
    <title>ArticleIcon</title>
    <g id="ArticleIcon" stroke="none" stroke-width="1" fill="none" fill-rule="evenodd">
        <path d="M18,36.4570312 C18,38.90625 19.2070312,40.125 21.6328125,40.125 L34.078125,40.125 C36.5039062,40.125 37.7109375,38.90625 37.7109375,36.4570312 L37.7109375,18.6796875 C37.7109375,16.2421875 36.5039062,15 34.078125,15 L21.6328125,15 C19.2070312,15 18,16.2421875 18,18.6796875 L18,36.4570312 Z M19.8867188,36.421875 L19.8867188,18.7148437 C19.8867188,17.5429687 20.5078125,16.8867187 21.7265625,16.8867187 L33.984375,16.8867187 C35.203125,16.8867187 35.8242188,17.5429687 35.8242188,18.7148437 L35.8242188,36.421875 C35.8242188,37.59375 35.203125,38.2382812 33.984375,38.2382812 L21.7265625,38.2382812 C20.5078125,38.2382812 19.8867188,37.59375 19.8867188,36.421875 Z M22.5703125,26.1914062 C22.8867188,26.1914062 23.0859375,26.0273437 23.1914062,25.6289062 L23.5898438,24.46875 L25.7929688,24.46875 L26.2148438,25.6289062 C26.3203125,26.015625 26.5195312,26.1914062 26.8242188,26.1914062 C27.2226562,26.1914062 27.4453125,25.96875 27.4453125,25.59375 C27.4453125,25.5117187 27.421875,25.359375 27.375,25.2070312 L25.6523438,20.4375 C25.4765625,19.9453125 25.1835938,19.7109375 24.6796875,19.7109375 C24.2109375,19.7109375 23.9296875,19.9453125 23.7539062,20.4375 L22.03125,25.2070312 C21.9726562,25.3476562 21.9492188,25.5117187 21.9492188,25.59375 C21.9492188,25.96875 22.1835938,26.1914062 22.5703125,26.1914062 Z M29.484375,21.7382812 L33.0585938,21.7382812 C33.46875,21.7382812 33.7851562,21.421875 33.7851562,21.0117187 C33.7851562,20.6132812 33.46875,20.296875 33.0585938,20.296875 L29.484375,20.296875 C29.0507812,20.296875 28.7460938,20.6132812 28.7460938,21.0117187 C28.7460938,21.421875 29.0507812,21.7382812 29.484375,21.7382812 Z M23.859375,23.4960937 L24.65625,21.0351562 L24.7265625,21.0351562 L25.5351562,23.4960937 L23.859375,23.4960937 Z M29.484375,25.828125 L33.0585938,25.828125 C33.46875,25.828125 33.7851562,25.5117187 33.7851562,25.1015625 C33.7851562,24.703125 33.46875,24.3867187 33.0585938,24.3867187 L29.484375,24.3867187 C29.0507812,24.3867187 28.7460938,24.703125 28.7460938,25.1015625 C28.7460938,25.5117187 29.0507812,25.828125 29.484375,25.828125 Z M21.890625,35.5195312 L22.7109375,35.5195312 L24.2578125,33.9609375 C24.4804688,33.75 24.7148438,33.6679687 24.9492188,33.6679687 C25.1835938,33.6679687 25.4414062,33.7617187 25.6640625,33.9609375 L26.625,34.8398437 L29.0273438,32.7070312 C29.296875,32.4726562 29.578125,32.3671875 29.8476562,32.3671875 C30.140625,32.3671875 30.4453125,32.4609375 30.65625,32.7070312 L33,35.4023437 L33.8203125,35.4023437 L33.8203125,29.8007812 C33.8203125,28.7695312 33.28125,28.2421875 32.25,28.2421875 L23.4726562,28.2421875 C22.4765625,28.2421875 21.890625,28.7695312 21.890625,29.8007812 L21.890625,35.5195312 Z M25.7578125,32.7070312 C25.0546875,32.7070312 24.4921875,32.1210937 24.4921875,31.4414062 C24.4921875,30.7382812 25.0546875,30.1523437 25.7578125,30.1757812 C26.4492188,30.1992187 27.0234375,30.7382812 27.0234375,31.4414062 C27.0234375,32.1210937 26.4492188,32.7070312 25.7578125,32.7070312 Z" fill="#808080" fill-rule="nonzero"></path>
    </g>
</svg>