<?xml version="1.0" encoding="UTF-8"?>
<svg width="29px" height="31px" viewBox="0 0 29 31" version="1.1" xmlns="http://www.w3.org/2000/svg" xmlns:xlink="http://www.w3.org/1999/xlink">
    <title>icons/download_light</title>
    <g id="icons/download_light" stroke="none" stroke-width="1" fill="none" fill-rule="evenodd">
        <path d="M7.37597656,29.5957031 L20.9091797,29.5957031 C23.6386719,29.5957031 25.0478516,28.1611328 25.0478516,25.4189453 L25.0478516,14.0566406 L15.5263672,14.0566406 C13.9394531,14.0566406 13.1777344,13.2949219 13.1777344,11.7080078 L13.1777344,2.08496094 L7.37597656,2.08496094 C4.65917969,2.08496094 3.23730469,3.51953125 3.23730469,6.27441406 L3.23730469,25.4189453 C3.23730469,28.1611328 4.65917969,29.5957031 7.37597656,29.5957031 Z M15.7675781,12.203125 L24.9208984,12.203125 C24.8447266,11.6191406 24.4257812,11.0732422 23.765625,10.4003906 L16.8212891,3.3671875 C16.1865234,2.71972656 15.6152344,2.28808594 15.03125,2.21191406 L15.03125,11.4667969 C15.0439453,11.9619141 15.2851562,12.203125 15.7675781,12.203125 Z M14.1425781,16.4560547 C14.7265625,16.4560547 15.2089844,16.9003906 15.2089844,17.484375 L15.2089844,21.6738281 L15.1201172,23.5654297 L16.0722656,22.5751953 L17.1132812,21.5214844 C17.3037109,21.3310547 17.5576172,21.1914062 17.8242188,21.1914062 C18.3828125,21.1914062 18.8017578,21.5849609 18.8017578,22.1308594 C18.8017578,22.4228516 18.6748047,22.6640625 18.4589844,22.8544922 L14.9677734,26.0791016 C14.6757812,26.3330078 14.4472656,26.4472656 14.1425781,26.4472656 C13.8505859,26.4472656 13.609375,26.3330078 13.3300781,26.0791016 L9.82617188,22.8544922 C9.61035156,22.6640625 9.48339844,22.4228516 9.48339844,22.1308594 C9.48339844,21.5849609 9.90234375,21.1914062 10.4609375,21.1914062 C10.7148438,21.1914062 10.9814453,21.3310547 11.171875,21.5214844 L12.2128906,22.5751953 L13.1777344,23.5654297 L13.0761719,21.6738281 L13.0761719,17.484375 C13.0761719,16.9003906 13.5585938,16.4560547 14.1425781,16.4560547 Z" id="Shape" fill="#0B84FE" fill-rule="nonzero"></path>
    </g>
</svg>