<?xml version="1.0" encoding="UTF-8"?>
<svg width="18px" height="18px" viewBox="0 0 18 18" version="1.1" xmlns="http://www.w3.org/2000/svg" xmlns:xlink="http://www.w3.org/1999/xlink">
    <title>icons/search</title>
    <defs>
        <filter color-interpolation-filters="auto" id="filter-1">
            <feColorMatrix in="SourceGraphic" type="matrix" values="0 0 0 0 0.611765 0 0 0 0 0.639216 0 0 0 0 0.686275 0 0 0 1.000000 0"></feColorMatrix>
        </filter>
    </defs>
    <g id="Page-1" stroke="none" stroke-width="1" fill="none" fill-rule="evenodd">
        <g id="Homepage" transform="translate(-861.000000, -737.000000)">
            <g id="Content" transform="translate(240.000000, -33.000000)">
                <g id="Articles" transform="translate(0.000000, 712.000000)">
                    <g id="icons/search" transform="translate(608.000000, 50.000000)" filter="url(#filter-1)">
                        <g transform="translate(13.000000, 8.000000)">
                            <polygon id="Path" points="0 0 18 0 18 18 0 18"></polygon>
                            <path d="M11.625,10.5 L11.0325,10.5 L10.8225,10.2975 C11.5575,9.4425 12,8.3325 12,7.125 C12,4.4325 9.8175,2.25 7.125,2.25 C4.4325,2.25 2.25,4.4325 2.25,7.125 C2.25,9.8175 4.4325,12 7.125,12 C8.3325,12 9.4425,11.5575 10.2975,10.8225 L10.5,11.0325 L10.5,11.625 L14.25,15.3675 L15.3675,14.25 L11.625,10.5 Z M7.125,10.5 C5.2575,10.5 3.75,8.9925 3.75,7.125 C3.75,5.2575 5.2575,3.75 7.125,3.75 C8.9925,3.75 10.5,5.2575 10.5,7.125 C10.5,8.9925 8.9925,10.5 7.125,10.5 Z" id="Shape" fill="#000000" fill-rule="nonzero"></path>
                        </g>
                    </g>
                </g>
            </g>
        </g>
    </g>
</svg>