<?xml version="1.0" encoding="UTF-8"?>
<svg width="51px" height="51px" viewBox="0 0 51 51" version="1.1" xmlns="http://www.w3.org/2000/svg" xmlns:xlink="http://www.w3.org/1999/xlink">
    <title>icons/social_github</title>
    <g id="icons/social_github" stroke="none" stroke-width="1" fill="none" fill-rule="evenodd">
        <path d="M25.5,13 C32.4062504,13 38,18.7352374 38,25.816173 C37.9986271,31.322328 34.5725724,36.2143448 29.4843756,37.9755172 C28.8593756,38.1036789 28.6250007,37.7031735 28.6250007,37.366749 C28.6250007,36.9342031 28.6406257,35.5564645 28.6406257,33.8423014 C28.6406257,32.6407852 28.2500007,31.8718148 27.7968757,31.4713094 C30.5781255,31.1509051 33.5,30.0615304 33.5,25.143324 C33.5,23.7335449 33.0156253,22.5961096 32.2187504,21.6989774 C32.3437504,21.3785731 32.7812504,20.0649154 32.0937504,18.3026916 C32.0937504,18.3026916 31.0468755,17.9502468 28.6562506,19.6163493 C27.6562507,19.3279854 26.5937508,19.1838035 25.5312509,19.1838035 C24.4687509,19.1838035 23.406251,19.3279854 22.4062511,19.6163493 C20.0156262,17.9662671 18.9687513,18.3026916 18.9687513,18.3026916 C18.2812514,20.0649154 18.7187513,21.3785731 18.8437513,21.6989774 C18.0468764,22.5961096 17.5625014,23.7495651 17.5625014,25.143324 C17.5625014,30.0455101 20.4687512,31.1509051 23.250001,31.4713094 C22.890626,31.7917137 22.5625011,32.3524213 22.4531261,33.1854725 C21.7343761,33.5218971 19.9375013,34.0665844 18.8125013,32.1281383 C18.5781263,31.7436531 17.8750014,30.7984603 16.8906265,30.8144805 C15.8437515,30.8305007 16.4687515,31.4232487 16.9062515,31.663552 C17.4375014,31.9679361 18.0468764,33.1053715 18.1875014,33.4738364 C18.4375014,34.1947462 19.2500013,35.5724848 22.3906261,34.9797368 C22.3906261,36.0530913 22.4062511,37.0623649 22.4062511,37.366749 C22.4062511,37.7031735 22.1718761,38.0876587 21.5468761,37.9755172 C16.4409084,36.2329638 12.9971767,31.3336853 13,25.816173 C13,18.7352374 18.5937513,13 25.5,13 L25.5,13 Z" id="Path" fill="#000000" fill-rule="nonzero"></path>
    </g>
</svg>